# Blender v2.78 (sub 0) OBJ File: 'scene3.blend'
# www.blender.org
mtllib scene3.2.mtl
o Cube.006_Cube.007
v 5.643063 0.000000 9.956514
v 5.643062 0.000000 3.956515
v 21.643063 0.000000 9.956514
v 21.643063 17.000000 9.956514
v 21.643061 0.000000 3.956514
v 21.643061 17.000000 3.956514
vn -0.7282 0.6854 0.0000
vn 0.0000 0.0000 1.0000
vn 1.0000 0.0000 -0.0000
vn 0.0000 -1.0000 0.0000
vn -0.0000 0.0000 -1.0000
usemtl None
s off
f 1//1 4//1 6//1 2//1
f 1//2 3//2 4//2
f 5//3 6//3 4//3 3//3
f 2//4 5//4 3//4 1//4
f 2//5 6//5 5//5
o Cube.005_Cube.006
v 5.929210 0.000000 -7.928182
v 5.929209 0.000000 -13.928183
v 21.929211 0.000000 -7.928183
v 21.929211 7.000000 -7.928183
v 21.929209 0.000000 -13.928183
v 21.929209 7.000000 -13.928183
vn -0.4008 0.9162 0.0000
vn 0.0000 0.0000 1.0000
vn 1.0000 0.0000 -0.0000
vn 0.0000 -1.0000 0.0000
vn 0.0000 0.0000 -1.0000
usemtl None
s off
f 7//6 10//6 12//6 8//6
f 7//7 9//7 10//7
f 11//8 12//8 10//8 9//8
f 8//9 11//9 9//9 7//9
f 8//10 12//10 11//10
o Cube.004_Cube.005
v 6.000000 0.000000 1.000000
v 6.000000 0.000000 -5.000000
v 22.000000 0.000000 1.000000
v 22.000000 2.000000 1.000000
v 22.000000 0.000000 -5.000000
v 22.000000 2.000000 -5.000000
vn -0.1240 0.9923 0.0000
vn 0.0000 0.0000 1.0000
vn 1.0000 0.0000 0.0000
vn 0.0000 -1.0000 0.0000
vn 0.0000 0.0000 -1.0000
usemtl None
s off
f 13//11 16//11 18//11 14//11
f 13//12 15//12 16//12
f 17//13 18//13 16//13 15//13
f 14//14 17//14 15//14 13//14
f 14//15 18//15 17//15
o Cube
v 2.000000 0.000000 7.000000
v 2.000000 2.000000 8.000000
v 2.000000 0.000000 11.000000
v 2.000000 3.000000 11.000000
v 0.000000 0.000000 7.000000
v 0.000000 2.000000 8.000000
v 0.000000 0.000000 11.000000
v 0.000000 3.000000 11.000000
vn 1.0000 0.0000 0.0000
vn 0.0000 0.0000 1.0000
vn -1.0000 0.0000 0.0000
vn 0.0000 0.4472 -0.8944
vn 0.0000 -1.0000 0.0000
vn 0.0000 0.9487 -0.3162
usemtl None
s off
f 19//16 20//16 22//16 21//16
f 21//17 22//17 26//17 25//17
f 25//18 26//18 24//18 23//18
f 23//19 24//19 20//19 19//19
f 21//20 25//20 23//20 19//20
f 26//21 22//21 20//21 24//21
o Cube.003_Cube.004
v 1.406807 0.000000 -7.855453
v -0.144546 0.000000 -6.593193
v 0.144546 0.000000 -9.406807
v 0.144546 2.000000 -9.406807
v -1.406807 0.000000 -8.144547
v -1.406807 2.000000 -8.144547
vn 0.4463 0.7071 0.5485
vn 0.7757 0.0000 -0.6311
vn -0.6311 0.0000 -0.7757
vn 0.0000 -1.0000 0.0000
vn -0.7757 0.0000 0.6311
usemtl None
s off
f 27//22 30//22 32//22 28//22
f 27//23 29//23 30//23
f 31//24 32//24 30//24 29//24
f 28//25 31//25 29//25 27//25
f 28//26 32//26 31//26
o Cube.002_Cube.003
v -2.000000 0.000000 -5.000000
v -2.000000 0.000000 -3.000000
v -4.000000 0.000000 -5.000000
v -4.000000 3.000000 -5.000000
v -4.000000 0.000000 -3.000000
v -4.000000 3.000000 -3.000000
vn 0.8321 0.5547 0.0000
vn 0.0000 0.0000 -1.0000
vn -1.0000 0.0000 0.0000
vn 0.0000 -1.0000 0.0000
vn 0.0000 0.0000 1.0000
usemtl None
s off
f 33//27 36//27 38//27 34//27
f 33//28 35//28 36//28
f 37//29 38//29 36//29 35//29
f 34//30 37//30 35//30 33//30
f 34//31 38//31 37//31
o Cube.000_Cube.002
v -2.000000 0.000000 -1.000000
v -2.000000 0.000000 1.000000
v -4.000000 0.000000 -1.000000
v -4.000000 1.000000 -1.000000
v -4.000000 0.000000 1.000000
v -4.000000 1.000000 1.000000
vn 0.4472 0.8944 0.0000
vn 0.0000 0.0000 -1.0000
vn -1.0000 0.0000 0.0000
vn 0.0000 -1.0000 0.0000
vn 0.0000 0.0000 1.0000
usemtl None
s off
f 39//32 42//32 44//32 40//32
f 39//33 41//33 42//33
f 43//34 44//34 42//34 41//34
f 40//35 43//35 41//35 39//35
f 40//36 44//36 43//36
o Cube.001
v -2.000000 0.000000 3.000000
v -2.000000 0.000000 5.000000
v -4.000000 0.000000 3.000000
v -4.000000 2.000000 3.000000
v -4.000000 0.000000 5.000000
v -4.000000 2.000000 5.000000
vn 0.7071 0.7071 0.0000
vn 0.0000 0.0000 -1.0000
vn -1.0000 0.0000 0.0000
vn 0.0000 -1.0000 0.0000
vn 0.0000 0.0000 1.0000
usemtl None
s off
f 45//37 48//37 50//37 46//37
f 45//38 47//38 48//38
f 49//39 50//39 48//39 47//39
f 46//40 49//40 47//40 45//40
f 46//41 50//41 49//41
