# Blender v2.78 (sub 0) OBJ File: 'map1.blend'
# www.blender.org
o Cube_Cube.003
v -6.136277 -0.188423 -3.854023
v -6.136277 1.811577 -3.854023
v -5.347980 -0.188423 -5.692116
v -5.347980 1.811577 -5.692116
v -4.298183 -0.188423 -3.065725
v -4.298183 1.811577 -3.065725
v -3.509886 -0.188423 -4.903818
v -3.509886 1.811577 -4.903818
vn -0.9190 0.0000 -0.3941
vn 0.3941 0.0000 -0.9190
vn 0.9190 0.0000 0.3941
vn -0.3941 0.0000 0.9190
vn 0.0000 -1.0000 0.0000
vn 0.0000 1.0000 -0.0000
s off
f 1//1 2//1 4//1 3//1
f 3//2 4//2 8//2 7//2
f 7//3 8//3 6//3 5//3
f 5//4 6//4 2//4 1//4
f 3//5 7//5 5//5 1//5
f 8//6 4//6 2//6 6//6
o terrain_Plane.003
v 8.000000 2.000000 -8.000000
v -8.000000 0.000000 -8.000000
v 8.000000 0.000000 8.000000
v -8.000000 0.000000 8.000000
v 8.000000 0.000000 3.999999
v 8.000000 0.000000 -0.000001
v 8.000000 2.000000 -4.000000
v 3.999999 2.000000 -8.000000
v -0.000001 0.000000 -8.000000
v -4.000000 0.000000 -8.000000
v -8.000000 0.000000 -3.999999
v -8.000000 0.000000 0.000001
v -8.000000 0.000000 4.000000
v -3.999999 0.000000 8.000000
v 0.000001 0.000000 8.000000
v 4.000000 0.000000 8.000000
v 4.000000 2.000000 -4.000000
v 4.000000 0.000000 -0.000000
v 4.000000 -1.000000 4.000000
v -0.000000 0.000000 -4.000000
v 0.000000 0.000000 0.000000
v 0.000000 0.000000 4.000000
v -4.000000 0.000000 -4.000000
v -4.000000 0.000000 0.000000
v -4.000000 1.000000 4.000000
vn -0.2357 0.9428 0.2357
vn -0.2425 0.9701 0.0000
vn 0.2357 0.9428 -0.2357
vn 0.2425 0.9701 0.0000
vn 0.0000 1.0000 0.0000
vn 0.0000 0.8944 0.4472
vn -0.4472 0.8944 0.0000
vn -0.4082 0.8165 0.4082
vn 0.0000 0.9701 0.2425
vn 0.0000 0.9701 -0.2425
s off
f 21//7 22//7 33//7
f 27//8 11//8 13//8
f 30//9 24//9 27//9
f 33//10 23//10 30//10
f 16//11 15//11 9//11
f 25//12 14//12 15//12
f 26//11 13//11 14//11
f 17//13 25//13 16//13
f 28//14 26//14 25//14
f 29//15 27//15 26//15
f 18//11 28//11 17//11
f 31//11 29//11 28//11
f 32//11 30//11 29//11
f 10//11 31//11 18//11
f 19//11 32//11 31//11
f 20//16 33//16 32//16
f 21//11 12//11 22//11
f 27//16 24//16 11//16
f 30//11 23//11 24//11
f 33//15 22//15 23//15
f 16//11 25//11 15//11
f 25//12 26//12 14//12
f 26//7 27//7 13//7
f 17//13 28//13 25//13
f 28//11 29//11 26//11
f 29//10 30//10 27//10
f 18//11 31//11 28//11
f 31//11 32//11 29//11
f 32//9 33//9 30//9
f 10//11 19//11 31//11
f 19//11 20//11 32//11
f 20//8 21//8 33//8
